<svg xmlns="http://www.w3.org/2000/svg" width="64" height="64" viewBox="40 -4 120 112">
<rect x="40" y="-4" width="120" height="112" fill="#000"/><path d="M73.0 34.1 C66.8 18.9 63.9 6.5 72.5 -2.0 C77.6 8.5 83.4 22.5 87.4 30.7 Z" fill="#f0ede6" stroke="#f0ede6" stroke-width="7" stroke-linecap="round" stroke-linejoin="round"/><path d="M125.1 37.7 C131.8 19.6 136.8 9.2 130.1 1.8 C126.5 13.9 121.6 23.5 112.7 33.0 Z" fill="#f0ede6" stroke="#f0ede6" stroke-width="7" stroke-linecap="round" stroke-linejoin="round"/><path d="M69.1 14.9 L76.8 16.2 M69.3 22.0 L79.7 23.2 M129.5 15.0 L125.9 16.5 M132.9 20.8 L122.2 24.5" fill="none" stroke="#f0ede6" stroke-width="7" stroke-linecap="round" stroke-linejoin="round"/><path d="M66.2 44.1 C64.8 25.9 134.9 25.8 131.9 45.9 C134.5 67.0 117.8 86.5 98.8 92.0 C78.5 83.1 65.4 64.7 65.3 42.4 Z" fill="#f0ede6" stroke="#f0ede6" stroke-width="7" stroke-linecap="round" stroke-linejoin="round"/><path d="M72.2 44.2 L91.4 50.5 L90.8 66.6 L83.5 71.3 L77.9 59.0 Z" fill="#000" stroke="#000" stroke-width="7" stroke-linecap="round" stroke-linejoin="round"/><path d="M126.3 45.4 L107.4 52.2 L110.3 60.0 L119.0 68.0 L124.9 56.1 Z" fill="#000" stroke="#000" stroke-width="7" stroke-linecap="round" stroke-linejoin="round"/><path d="M99.3 60.0 L96.4 66.4 L106.2 65.8 Z" fill="#000" stroke="#000" stroke-width="7" stroke-linecap="round" stroke-linejoin="round"/><path d="M81.4 81.1 C93.4 74.1 108.7 75.6 118.8 77.2 L111.9 87.5 L100.0 83.2 L86.3 87.1 Z" fill="#000" stroke="#000" stroke-width="7" stroke-linecap="round" stroke-linejoin="round"/><path d="M88.4 79.3 L89.0 85.7 M110.2 78.4 L107.0 86.9" fill="none" stroke="#000" stroke-width="5.6000000000000005" stroke-linecap="round" stroke-linejoin="round"/><path d="M66.5 47.5 L48.0 53.4 L68.1 60.1" fill="none" stroke="#f0ede6" stroke-width="7" stroke-linecap="round" stroke-linejoin="round"/><path d="M132.5 46.7 L152.0 56.0 L134.6 61.9" fill="none" stroke="#f0ede6" stroke-width="7" stroke-linecap="round" stroke-linejoin="round"/><path d="M90.6 85.8 L96.0 104.7 L99.1 94.3 L102.4 105.8 L108.2 89.1 Z" fill="#f0ede6" stroke="#f0ede6" stroke-width="7" stroke-linecap="round" stroke-linejoin="round"/></svg>