<svg xmlns="http://www.w3.org/2000/svg" width="64" height="64" viewBox="18 0 164 108">
<rect x="18" y="0" width="164" height="108" fill="#000"/>
<path d="M62 44 C52 26 42 18 26 8" fill="none" stroke="#f0ede6" stroke-width="6" stroke-linecap="round" stroke-linejoin="round"/><path d="M138 44 C148 26 158 18 174 8" fill="none" stroke="#f0ede6" stroke-width="6" stroke-linecap="round" stroke-linejoin="round"/><path d="M60 50 C58 22 142 20 140 50 C143 72 132 86 120 91 L118 100" fill="none" stroke="#f0ede6" stroke-width="6" stroke-linecap="round" stroke-linejoin="round"/><path d="M60 50 C57 72 68 86 82 91 L84 100" fill="none" stroke="#f0ede6" stroke-width="6" stroke-linecap="round" stroke-linejoin="round"/><path d="M74 52 a8 9 0 1 0 16 0 a8 9 0 1 0 -16 0" fill="none" stroke="#f0ede6" stroke-width="6" stroke-linecap="round" stroke-linejoin="round"/><path d="M110 52 a8 9 0 1 0 16 0 a8 9 0 1 0 -16 0" fill="none" stroke="#f0ede6" stroke-width="6" stroke-linecap="round" stroke-linejoin="round"/><path d="M100 60 L96 70 L104 70 Z" fill="none" stroke="#f0ede6" stroke-width="6" stroke-linecap="round" stroke-linejoin="round"/><path d="M84 79 L116 79 M90 75 L90 84 M97 75 L97 84 M104 75 L104 84 M111 75 L111 84" fill="none" stroke="#f0ede6" stroke-width="6" stroke-linecap="round" stroke-linejoin="round"/>
</svg>